<svg xmlns="http://www.w3.org/2000/svg" width="1024" height="1024" viewBox="0 0 1024 1024" style="background:#000">
  <path fill="#000000" fill-rule="evenodd" d="M778.899414,432.055664 L791.887695,365.722656 L684.734375,365.722656 L722.771484,180.639648 L656.438477,180.639648 L617.9375,365.722656 L475.994141,365.722656 L513.103516,180.639648 L447.234375,180.639648 L408.733398,365.722656 L313.640625,365.722656 L300.188477,432.055664 L395.28125,432.055664 L363.274414,591.625977 L261.6875,591.625977 L248.699219,658.422852 L348.894531,658.422852 L310.393555,850 L376.262695,850 L415.227539,658.422852 L558.098633,658.422852 L519.133789,850 L585.466797,850 L624.431641,658.422852 L726.482422,658.422852 L739.470703,591.625977 L637.883789,591.625977 L670.818359,432.055664 L778.899414,432.055664 Z M461.150391,431.12793 L604.949219,431.12793 L572.014648,593.017578 L428.21582,593.017578 L461.150391,431.12793 Z"/>
</svg>
